<svg height="512pt" viewBox="0 0 512 512" width="512pt" xmlns="http://www.w3.org/2000/svg"><path d="m432.75 63.273438-55.949219 96.9375c-8.699219 15.070312-13.300781 32.289062-13.300781 49.769531 0 44.414062 29.109375 82.152343 69.25 95.15625 40.140625-13.003907 69.25-50.742188 69.25-95.15625 0-17.480469-4.601562-34.699219-13.300781-49.769531zm0 0" fill="#4dbbeb"/><path d="m165 202.628906-69.019531 119.582032c-10.449219 18.109374-15.980469 38.777343-15.980469 59.769531 0 54 35.851562 99.773437 85 114.789062 49.148438-15.015625 85-60.789062 85-114.789062 0-20.992188-5.53125-41.660157-15.980469-59.769531zm0 0" fill="#bee7f4"/><path d="m462 199.980469c-5.519531 0-10 4.480469-10 10s4.480469 10 10 10 10-4.480469 10-10-4.480469-10-10-10zm0 0"/><path d="m210 371.980469c-5.519531 0-10 4.480469-10 10s4.480469 10 10 10 10-4.480469 10-10-4.480469-10-10-10zm0 0"/><path d="m138.660156 136.992188c-1.785156-3.097657-5.085937-5.003907-8.660156-5.003907s-6.875 1.90625-8.660156 5.003907l-104.019532 180.222656c-11.332031 19.632812-17.320312 42.027344-17.320312 64.765625 0 71.683593 58.316406 130 130 130s130-58.316407 130-130c0-22.738281-5.988281-45.132813-17.320312-64.769531zm-8.660156 354.988281c-60.652344 0-110-49.347657-110-110 0-19.234375 5.0625-38.171875 14.640625-54.769531l95.359375-165.21875 95.359375 165.21875c9.578125 16.597656 14.640625 35.535156 14.640625 54.769531 0 60.65625-49.347656 110-110 110zm0 0"/><path d="m204.835938 411.96875c-4.824219-2.679688-10.914063-.941406-13.597657 3.886719-12.378906 22.28125-35.84375 36.125-61.238281 36.125-5.523438 0-10 4.476562-10 10 0 5.523437 4.476562 10 10 10 32.652344 0 62.816406-17.785157 78.722656-46.414063 2.679688-4.828125.941406-10.914062-3.886718-13.597656zm0 0"/><path d="m497.359375 155.210938-86.699219-150.210938c-1.785156-3.09375-5.085937-5-8.660156-5s-6.875 1.90625-8.660156 5l-86.699219 150.210938c-9.578125 16.589843-14.640625 35.527343-14.640625 54.769531 0 60.652343 49.347656 110 110 110s110-49.347657 110-110c0-19.242188-5.0625-38.179688-14.640625-54.769531zm-95.359375 144.769531c-49.625 0-90-40.375-90-90 0-15.738281 4.136719-31.21875 11.960938-44.769531l78.039062-135.207032 78.039062 135.207032c7.824219 13.554687 11.960938 29.03125 11.960938 44.769531 0 49.625-40.375 90-90 90zm0 0"/><path d="m454.933594 239.921875c-4.289063-3.476563-10.585938-2.816406-14.0625 1.472656-9.570313 11.8125-23.734375 18.585938-38.871094 18.585938-5.519531 0-10 4.480469-10 10 0 5.523437 4.480469 10 10 10 21.195312 0 41.027344-9.472657 54.410156-25.996094 3.476563-4.289063 2.816406-10.589844-1.476562-14.0625zm0 0"/></svg>